<?xml version="1.0" encoding="UTF-8" standalone="no"?>
<!-- svg
   xmlns:svg="http://www.w3.org/2000/svg"
   xmlns="http://www.w3.org/2000/svg"
   version="1.1"
   width="240"
   height="240"
   id="svg2">
  <defs/>
  <g
     id="dpc">
	
	<circle cx="12" cy="12" r="12" fill="#00FF00"/>
	<text x="0" y="12"
	style="font-size: 10; stroke:#000000; fill:#000000">DPC</text>
  </g>
</svg -->

<!-- svg version="1.1"
     baseProfile="full"
     width="300" height="200"
     xmlns="http://www.w3.org/2000/svg">

  <circle cx="48" cy="48" r="48" fill="black" />

  <text x="48" y="48" font-size="60" text-anchor="middle" fill="white">SVG</text>

</svg -->

<svg
   xmlns:dc="http://purl.org/dc/elements/1.1/"
   xmlns:cc="http://creativecommons.org/ns#"
   xmlns:rdf="http://www.w3.org/1999/02/22-rdf-syntax-ns#"
   xmlns:svg="http://www.w3.org/2000/svg"
   xmlns="http://www.w3.org/2000/svg"
   xmlns:sodipodi="http://sodipodi.sourceforge.net/DTD/sodipodi-0.dtd"
   xmlns:inkscape="http://www.inkscape.org/namespaces/inkscape"
   version="1.1"
   width="24"
   height="24"
   id="svg2"
   inkscape:version="0.48.4 r9939"
   sodipodi:docname="test.svg">
  <metadata
     id="metadata12">
    <rdf:RDF>
      <cc:Work
         rdf:about="">
        <dc:format>image/svg+xml</dc:format>
        <dc:type
           rdf:resource="http://purl.org/dc/dcmitype/StillImage" />
        <dc:title></dc:title>
      </cc:Work>
    </rdf:RDF>
  </metadata>
  <defs
     id="defs10" />
  <sodipodi:namedview
     pagecolor="#ffffff"
     bordercolor="#666666"
     borderopacity="1"
     objecttolerance="10"
     gridtolerance="10"
     guidetolerance="10"
     inkscape:pageopacity="0"
     inkscape:pageshadow="2"
     inkscape:window-width="640"
     inkscape:window-height="480"
     id="namedview8"
     showgrid="false"
     inkscape:zoom="9.8333333"
     inkscape:cx="12"
     inkscape:cy="12"
     inkscape:window-x="394"
     inkscape:window-y="162"
     inkscape:window-maximized="0"
     inkscape:current-layer="svg2" />
  <path
     style=""
     d="M 24,12 C 24,18.627417 18.627417,24 12,24 5.372583,24 0,18.627417 0,12 0,5.372583 5.372583,0 12,0 18.627417,0 24,5.372583 24,12 z"
     id="circle4" />
  <g
     style="font-size:10px;font-weight:bolder;text-anchor:middle;fill:#ffffff;font-family:sans-serif"
     id="text6">
    <path
       d="m 2.2050781,16 0,-7.1582031 2.4658203,0 c 0.5566369,7.1e-6 0.9814411,0.034187 1.2744141,0.102539 0.4101513,0.094408 0.7600859,0.2653063 1.0498047,0.5126954 0.3775982,0.3190166 0.6599873,0.7267307 0.847168,1.2231447 0.1871678,0.496424 0.280755,1.063643 0.2807617,1.70166 -6.7e-6,0.543623 -0.063483,1.025393 -0.1904297,1.445312 C 7.8056577,14.247072 7.6428974,14.594565 7.4443359,14.869629 7.2457624,15.144695 7.0284775,15.361166 6.7924805,15.519043 6.5564727,15.676921 6.2716423,15.79655 5.9379883,15.87793 5.6043253,15.95931 5.2210249,16 4.7880859,16 z m 0.9472657,-0.844727 1.5283203,0 c 0.4720015,1e-6 0.842281,-0.04394 1.1108398,-0.131835 C 6.060054,14.935548 6.2740837,14.81185 6.4335937,14.652344 6.6581979,14.427736 6.8331652,14.125816 6.9584961,13.746582 7.083816,13.367353 7.1464787,12.907555 7.1464844,12.367188 7.1464787,11.618494 7.0235947,11.043136 6.777832,10.641113 6.5320587,10.239101 6.2333936,9.9697326 5.8818359,9.8330078 5.6279255,9.7353578 5.2193973,9.6865298 4.65625,9.6865234 l -1.5039062,0 z"
       style="font-size:10px;font-weight:bolder;text-anchor:middle;fill:#ffffff;font-family:sans-serif"
       id="path2990" />
    <path
       d="m 9.4316406,16 0,-7.1582031 2.7001954,0 c 0.475256,7.1e-6 0.838212,0.022794 1.088867,0.068359 0.351558,0.058601 0.646154,0.1700915 0.883789,0.3344726 0.237625,0.1643946 0.428868,0.3947004 0.573731,0.690918 0.14485,0.2962301 0.217279,0.6217501 0.217285,0.9765621 -6e-6,0.608729 -0.193691,1.123865 -0.581055,1.545411 -0.387375,0.421552 -1.087244,0.632327 -2.099609,0.632324 l -1.835938,0 0,2.910156 z m 0.9472654,-3.754883 1.850586,0 c 0.611975,4e-6 1.046545,-0.113928 1.303711,-0.341797 0.257156,-0.22786 0.385737,-0.548498 0.385742,-0.961914 -5e-6,-0.299474 -0.07569,-0.555821 -0.22705,-0.769043 C 13.540522,9.9591532 13.341141,9.8183656 13.09375,9.75 12.934241,9.7076886 12.639644,9.6865298 12.209961,9.6865234 l -1.831055,0 z"
       style="font-size:10px;font-weight:bolder;text-anchor:middle;fill:#ffffff;font-family:sans-serif"
       id="path2992" />
    <path
       d="m 21.21875,13.490234 0.947266,0.239258 c -0.198575,0.777996 -0.555833,1.371258 -1.071778,1.779785 -0.515955,0.408529 -1.146651,0.612793 -1.89209,0.612793 -0.771487,0 -1.398928,-0.157063 -1.882324,-0.471191 -0.4834,-0.314127 -0.851238,-0.769042 -1.103515,-1.364746 -0.25228,-0.595701 -0.378419,-1.235349 -0.378418,-1.918945 -1e-6,-0.745439 0.142414,-1.395666 0.427246,-1.950684 0.284829,-0.555007 0.690102,-0.976556 1.21582,-1.2646485 0.525714,-0.2880788 1.104326,-0.4321217 1.73584,-0.4321289 0.716141,7.2e-6 1.318354,0.1822987 1.80664,0.546875 0.488276,0.3645897 0.828445,0.8772844 1.020508,1.5380864 l -0.932617,0.219726 C 20.945307,10.503586 20.704422,10.124355 20.388672,9.8867188 20.072912,9.6490949 19.675777,9.5302799 19.197266,9.5302734 c -0.550134,6.5e-6 -1.009932,0.1318423 -1.379395,0.3955079 -0.369468,0.2636777 -0.629071,0.6176807 -0.778809,1.0620117 -0.149741,0.44434 -0.22461,0.902511 -0.224609,1.374512 -1e-6,0.608727 0.0887,1.140139 0.266113,1.594238 0.177407,0.454103 0.453286,0.793458 0.827637,1.018066 0.374346,0.224611 0.779619,0.336915 1.21582,0.336914 0.530595,1e-6 0.979813,-0.152994 1.347657,-0.458984 0.367833,-0.305988 0.616856,-0.760089 0.74707,-1.362305 z"
       style="font-size:10px;font-weight:bolder;text-anchor:middle;fill:#ffffff;font-family:sans-serif"
       id="path2994" />
  </g>
</svg>
