<?xml version="1.0" encoding="UTF-8" standalone="no"?>
<svg
   xmlns:dc="http://purl.org/dc/elements/1.1/"
   xmlns:cc="http://creativecommons.org/ns#"
   xmlns:rdf="http://www.w3.org/1999/02/22-rdf-syntax-ns#"
   xmlns:svg="http://www.w3.org/2000/svg"
   xmlns="http://www.w3.org/2000/svg"
   xmlns:sodipodi="http://sodipodi.sourceforge.net/DTD/sodipodi-0.dtd"
   xmlns:inkscape="http://www.inkscape.org/namespaces/inkscape"
   version="1.1"
   width="24"
   height="24"
   id="svg2"
   inkscape:version="0.48.4 r9939"
   sodipodi:docname="anfh-par-fptlv.svg">
  <metadata
     id="metadata14">
    <rdf:RDF>
      <cc:Work
         rdf:about="">
        <dc:format>image/svg+xml</dc:format>
        <dc:type
           rdf:resource="http://purl.org/dc/dcmitype/StillImage" />
        <dc:title></dc:title>
      </cc:Work>
    </rdf:RDF>
  </metadata>
  <defs
     id="defs12" />
  <sodipodi:namedview
     pagecolor="#ffffff"
     bordercolor="#666666"
     borderopacity="1"
     objecttolerance="10"
     gridtolerance="10"
     guidetolerance="10"
     inkscape:pageopacity="0"
     inkscape:pageshadow="2"
     inkscape:window-width="640"
     inkscape:window-height="480"
     id="namedview10"
     showgrid="false"
     inkscape:zoom="9.8333333"
     inkscape:cx="12"
     inkscape:cy="12"
     inkscape:window-x="0"
     inkscape:window-y="0"
     inkscape:window-maximized="0"
     inkscape:current-layer="svg2" />
  <circle
     cx="12"
     cy="12"
     r="12"
     id="circle4" />
  <g
     style="font-size:10px;font-weight:bolder;text-anchor:middle;fill:#ffffff;font-family:sans-serif"
     id="text6">
    <path
       d="m 6.4238281,10 0,-7.1582031 4.8291019,0 0,0.8447265 -3.8818363,0 0,2.2167969 3.3593753,0 0,0.8447266 -3.3593753,0 0,3.2519531 z"
       style="font-size:10px;font-weight:bolder;text-anchor:middle;fill:#ffffff;font-family:sans-serif"
       id="path2999" />
    <path
       d="m 12.488281,10 0,-7.1582031 2.700196,0 c 0.475256,7.1e-6 0.838211,0.022794 1.088867,0.068359 0.351557,0.058601 0.646153,0.1700915 0.883789,0.3344726 0.237624,0.1643946 0.428868,0.3947004 0.57373,0.690918 0.144851,0.2962297 0.217279,0.6217502 0.217285,0.9765625 -6e-6,0.6087284 -0.193691,1.1238646 -0.581054,1.5454101 -0.387375,0.4215526 -1.087244,0.6323272 -2.09961,0.6323242 l -1.835937,0 0,2.9101563 z m 0.947266,-3.7548828 1.850586,0 c 0.611975,3.7e-6 1.046545,-0.1139284 1.303711,-0.3417969 C 16.847,5.6754601 16.975581,5.3548224 16.975586,4.9414062 16.975581,4.6419324 16.899897,4.385585 16.748535,4.1723633 16.597163,3.9591532 16.397782,3.8183656 16.150391,3.75 c -0.15951,-0.042311 -0.454106,-0.06347 -0.883789,-0.063477 l -1.831055,0 z"
       style="font-size:10px;font-weight:bolder;text-anchor:middle;fill:#ffffff;font-family:sans-serif"
       id="path3001" />
  </g>
  <g
     style="font-size:10px;font-weight:bolder;text-anchor:middle;fill:#ffffff;font-family:sans-serif"
     id="text8">
    <path
       d="m 5.4130859,20 0,-6.313477 -2.3583984,0 0,-0.844726 5.6738281,0 0,0.844726 -2.368164,0 0,6.313477 z"
       style="font-size:10px;font-weight:bolder;text-anchor:middle;fill:#ffffff;font-family:sans-serif"
       id="path2992" />
    <path
       d="m 9.6660156,20 0,-7.158203 0.9472654,0 0,6.313476 3.525391,0 0,0.844727 z"
       style="font-size:10px;font-weight:bolder;text-anchor:middle;fill:#ffffff;font-family:sans-serif"
       id="path2994" />
    <path
       d="m 17.317383,20 -2.773438,-7.158203 1.025391,0 1.860351,5.200195 c 0.149737,0.416668 0.275062,0.807293 0.375977,1.171875 0.110674,-0.390624 0.239254,-0.781248 0.385742,-1.171875 l 1.933594,-5.200195 0.966797,0 L 18.289062,20 z"
       style="font-size:10px;font-weight:bolder;text-anchor:middle;fill:#ffffff;font-family:sans-serif"
       id="path2996" />
  </g>
</svg>
